<svg width="1458" height="1271" viewBox="0 0 1458 1271" fill="none" xmlns="http://www.w3.org/2000/svg">
<path fill-rule="evenodd" clip-rule="evenodd" d="M875.787 0L750.722 120.036L750.711 120.033L791.956 287.643L626.91 239.77L501.842 359.809L667.67 407.91L667.148 408.411L667.123 408.404L667.129 408.429L667.138 408.463L542.13 528.444L583.544 696.739L583.522 696.759L583.48 696.747L542.064 528.441L376.93 480.542L376.927 480.53L542.044 528.424L667.113 408.385L501.317 360.294L501.831 359.8L460.409 191.468L335.34 311.507L376.59 479.136L376.539 479.185L335.277 311.505L168.785 263.212L210.208 431.544L376.055 479.65L376.051 479.653L210.184 431.541L85.1152 551.58L251.607 599.873L375.721 480.75L375.741 480.832L251.692 599.892L292.96 767.596L292.907 767.646L251.626 599.89L85.135 551.597L126.364 719.143L125.069 718.767L0 838.807L166.491 887.1L290.976 767.621L291.057 767.644L166.576 887.119L207.614 1053.89L207.563 1053.94L166.512 887.116L0.0207614 838.823L41.4435 1007.16L207.848 1055.42L248.927 1222.36L415.418 1270.65L373.995 1102.32L209.023 1054.47L209.032 1054.46L373.976 1102.3L496.938 984.287L497.019 984.31L374.062 1102.32L415.484 1270.66L540.553 1150.62L499.83 985.125L499.899 985.145L458.476 816.813L292.001 768.525L291.84 767.871L292.479 768.057L292 768.517L458.491 816.81L583.492 696.835L583.495 696.846L458.485 816.829L499.905 985.151L499.866 985.189L666.358 1033.48L791.426 913.442L624.944 865.152L624.96 865.137L791.395 913.414L749.972 745.082L583.559 696.811L583.557 696.803L749.986 745.078L874.975 625.116L874.978 625.128L749.982 745.098L791.404 913.43L791.424 913.411L832.843 1081.73L999.334 1130.02L957.911 961.688L791.436 913.4L791.442 913.394L957.926 961.685L1082.9 841.74L1082.9 841.752L957.921 961.704L999.344 1130.04L1124.4 1010.01L1290.79 1058.27L1249.36 889.936L1082.99 841.678L1082.99 841.669L1249.38 889.932L1374.45 769.893L1207.96 721.6L1207.94 721.612L1167.13 555.77L1332.35 603.693L1290.92 435.36L1124.43 387.067L1165.24 552.912L1000.12 505.016L958.706 336.722L833.637 456.761L875.03 624.975L875.025 624.98L833.62 456.722L958.689 336.683L958.641 336.669L1083.7 216.635L1042.28 48.3026L917.213 168.342L958.634 336.667L792.861 288.582L792.865 288.578L958.625 336.659L917.203 168.33L917.21 168.332L1042.28 48.293L875.787 0ZM1040.6 48.7069L876.026 0.971032L752.401 119.625L916.971 167.361L1040.6 48.7069ZM918.174 168.62L1041.8 49.9661L1082.74 216.356L959.118 335.011L918.174 168.62ZM1082.99 841.668L1082.97 841.664L1082.97 841.671L1082.98 841.674L1082.99 841.668ZM874.989 625.015L874.985 625.019L708.6 576.757L708.604 576.753L874.989 625.015ZM875.034 625.059L875.041 625.052L875.049 625.055L875.05 625.058L875.046 625.062L875.034 625.059ZM875.081 625.072L875.088 625.066L1041.46 673.325L1165.56 554.214L1165.57 554.226L1041.46 673.344L1082.86 841.607L1082.86 841.605L1041.45 673.329L875.081 625.072ZM1166.29 553.534L1166.28 553.522L1166.53 553.286L1166.2 553.191L1125.63 388.317L1290.2 436.053L1331.15 602.443L1166.89 554.799L1166.53 553.305L1166.29 553.534ZM497.741 983.618L497.659 983.594L498.44 982.844L498.461 982.926L497.741 983.618ZM457.754 817.506L498.241 982.031L333.67 934.296L293.184 769.77L457.754 817.506ZM497.362 982.679L333.909 935.267L334.129 936.16L496.699 983.316L497.362 982.679ZM209.753 1053.77L373.737 1101.33L495.977 984.008L333.407 936.852L333.056 935.423L209.753 1053.77ZM291.163 768.743L331.961 934.54L208.336 1053.19L167.537 887.397L291.163 768.743ZM207.589 1054.04L207.657 1054.06L207.66 1054.07L207.591 1054.05L207.589 1054.04ZM376.249 480.344L376.168 480.321L376.177 480.312L376.257 480.336L376.249 480.344ZM336.301 311.786L459.926 193.132L500.871 359.522L377.245 478.176L336.301 311.786ZM666.716 410.068L543.091 528.722L584.035 695.112L707.661 576.458L666.716 410.068ZM583.527 696.802L583.537 696.805L583.543 696.799L583.533 696.796L583.527 696.802ZM874.568 626.722L750.942 745.376L791.887 911.766L915.513 793.112L874.568 626.722ZM459.445 817.107L583.071 698.453L624.016 864.843L500.39 983.498L459.445 817.107ZM375.98 481.803L252.652 600.171L293.597 766.561L416.924 648.193L375.98 481.803ZM377.169 481.513L541.342 529.133L582.287 695.523L418.113 647.903L377.169 481.513ZM497.979 984.589L375.022 1102.6L415.967 1268.99L539.593 1150.34L498.869 984.847L497.979 984.589ZM834.597 457.039L958.223 338.385L999.168 504.775L875.542 623.429L834.597 457.039ZM1082.51 843.328L958.882 961.982L999.826 1128.37L1123.45 1009.72L1082.51 843.328ZM1165.85 555.4L1165.8 555.197L1042.42 673.623L1083.36 840.013L1206.99 721.359L1166.17 555.492L1165.85 555.4ZM584.68 698.038L749.251 745.774L790.195 912.164L625.625 864.429L584.68 698.038ZM832.893 457.389L668.323 409.653L709.267 576.044L873.838 623.779L832.893 457.389ZM334.555 312.197L169.985 264.461L210.93 430.851L375.5 478.587L334.555 312.197ZM86.3344 552.846L250.905 600.582L291.85 766.972L127.279 719.236L86.3344 552.846ZM165.791 887.808L1.22012 840.073L42.1649 1006.46L206.735 1054.2L165.791 887.808ZM208.704 1055.28L373.274 1103.01L414.219 1269.4L249.648 1221.67L208.704 1055.28ZM957.19 962.381L792.62 914.645L833.564 1081.04L998.135 1128.77L957.19 962.381ZM876.155 626.286L1040.73 674.021L1081.67 840.411L917.099 792.676L876.155 626.286ZM1248.64 890.628L1084.07 842.892L1125.02 1009.28L1289.59 1057.02L1248.64 890.628ZM751.911 121.283L916.481 169.019L957.426 335.409L792.855 287.673L751.911 121.283ZM708.803 577.717L873.373 625.453L749.747 744.107L585.177 696.371L708.803 577.717ZM789.744 913.856L625.174 866.12L501.548 984.775L666.119 1032.51L789.744 913.856ZM417.308 649.448L581.878 697.184L458.252 815.839L293.682 768.103L417.308 649.448ZM665.431 408.799L500.86 361.063L377.235 479.718L541.805 527.453L665.431 408.799ZM792.436 289.361L957.007 337.096L833.381 455.751L668.811 408.015L792.436 289.361ZM791.72 288.477L627.149 240.741L503.524 359.395L668.094 407.131L791.72 288.477ZM374.993 480.248L210.423 432.512L86.7971 551.166L251.368 598.902L374.993 480.248ZM125.308 719.738L289.878 767.474L166.252 886.129L1.68188 838.393L125.308 719.738ZM916.742 794.323L1081.31 842.059L957.687 960.714L793.116 912.978L916.742 794.323ZM1164.85 553.7L1000.28 505.964L876.653 624.618L1041.22 672.354L1164.85 553.7ZM1208.19 722.571L1372.76 770.306L1249.14 888.961L1084.57 841.225L1208.19 722.571Z" fill="white"/>
<path fill-rule="evenodd" clip-rule="evenodd" d="M666.354 1033.5L707.776 1201.83L832.845 1081.79L791.422 913.461L666.354 1033.5ZM790.94 915.125L667.314 1033.78L708.259 1200.17L831.885 1081.52L790.94 915.125Z" fill="white"/>
<path fill-rule="evenodd" clip-rule="evenodd" d="M1249.37 889.951L1290.8 1058.28L1415.86 938.244L1374.44 769.912L1249.37 889.951ZM1373.96 771.576L1250.33 890.23L1291.28 1056.62L1414.9 937.966L1373.96 771.576Z" fill="white"/>
<path fill-rule="evenodd" clip-rule="evenodd" d="M1290.93 435.376L1332.35 603.708L1457.42 483.669L1416 315.337L1290.93 435.376ZM1415.52 317L1291.89 435.655L1332.84 602.045L1456.46 483.39L1415.52 317Z" fill="white"/>
<path fill-rule="evenodd" clip-rule="evenodd" d="M499.85 985.192L541.273 1153.52L707.764 1201.82L666.341 1033.49L499.85 985.192ZM665.62 1034.18L501.049 986.442L541.994 1152.83L706.565 1200.57L665.62 1034.18Z" fill="white"/>
<path fill-rule="evenodd" clip-rule="evenodd" d="M293.833 143.156L460.325 191.449L335.256 311.488L168.765 263.195L293.833 143.156ZM294.072 144.127L458.643 191.863L335.017 310.517L170.447 262.781L294.072 144.127Z" fill="white"/>
<path fill-rule="evenodd" clip-rule="evenodd" d="M1249.52 267.024L1416.01 315.317L1290.94 435.357L1124.45 387.064L1249.52 267.024ZM1249.75 267.995L1414.33 315.731L1290.7 434.386L1126.13 386.65L1249.75 267.995Z" fill="white"/>
</svg>
